<?xml version="1.0" encoding="utf-8"?>
<!-- Generator: Adobe Illustrator 15.1.0, SVG Export Plug-In . SVG Version: 6.00 Build 0)  -->
<!DOCTYPE svg PUBLIC "-//W3C//DTD SVG 1.1//EN" "http://www.w3.org/Graphics/SVG/1.1/DTD/svg11.dtd">
<svg version="1.1" id="Layer_1" xmlns="http://www.w3.org/2000/svg" xmlns:xlink="http://www.w3.org/1999/xlink" x="0px" y="0px"
	 width="234.682px" height="165.153px" viewBox="0 0 234.68 165.153" enable-background="new 0 0 234.68 165.153"
	 xml:space="preserve">
<rect fill="#39B54A" width="234.68" height="166.151"/>
<rect x="31.871" y="120.11" width="0.932" height="12.564"/>
<rect x="190.83" y="120.11" width="0.932" height="12.564"/>
<rect x="20.307" y="125.206" width="181.983" height="0.932"/>
<rect x="189.86" y="119.389" transform="matrix(0.7056 0.7086 -0.7086 0.7056 145.3773 -98.5588)" width="2.875" height="12.564"/>
<rect x="30.898" y="119.389" transform="matrix(0.7056 0.7086 -0.7086 0.7056 98.5752 14.087)" width="2.875" height="12.564"/>
<rect x="151.44" y="43.258" width="51.082" height="72.151"/>
<path d="M61.79,64.637h7.688v43.518h13.709v7.254H61.79V64.637z"/>
<path d="M53.833,67.938c-2.176-2.201-5.102-3.302-8.775-3.302c0,0-1.375,0-2.674,0c-2.445,0.419-4.486,1.428-6.104,3.063
	c-2.176,2.199-3.266,5.138-3.266,8.813v38.898h7.691v-20.6h4.352c3.674,0,6.6-1.1,8.775-3.299c2.174-2.201,3.264-5.139,3.264-8.814
	v-5.947C57.097,73.074,56.007,70.139,53.833,67.938z M49.407,82.843c0,1.5-0.41,2.66-1.232,3.48
	c-0.822,0.822-1.982,1.234-3.48,1.234h-3.988V76.046c0.059-1.194,0.436-2.167,1.162-2.894c0.791-0.791,1.887-1.188,3.285-1.188
	c0.305,0,0.594,0.026,0.869,0.069c0.199,0.041,0.398,0.082,0.582,0.145c0.029,0.009,0.061,0.016,0.092,0.024
	c0.576,0.205,1.07,0.512,1.479,0.921c0.822,0.822,1.232,1.982,1.232,3.481V82.843z"/>
<path d="M106.687,115.409h7.832l-8.412-50.772H95.806l-8.412,50.772h7.688l1.144-7.703h9.318L106.687,115.409z M104.43,100.077
	h-7.091l3.545-24.56L104.43,100.077z"/>
<polygon points="136.872,64.637 136.872,94.159 126.128,64.637 118.583,64.637 118.583,115.409 126.128,115.409 126.128,86.27 
	136.733,115.409 136.872,115.333 136.872,115.409 144.405,115.409 144.405,64.637 "/>
<path fill="#FFFFFF" d="M187.259,54.554c-2.064-2.087-4.672-3.375-7.793-3.908c-1.658-0.001-3.412-0.001-3.412-0.001
	c-4.689,0-8.426,1.405-11.203,4.215c-2.779,2.81-4.168,6.559-4.168,11.249v7.594c0,4.691,1.389,8.441,4.168,11.251
	c2.777,2.809,6.514,4.213,11.203,4.213h5.555v10.092v1.197v0.441c-0.076,1.525-0.557,2.766-1.484,3.693
	c-1.012,1.01-2.408,1.518-4.193,1.518c-0.016,0-0.033,0.012-0.049,0.016h-5.27v9.293h4.238c0.396,0.023,0.791,0.047,1.203,0.047
	c0,0,1.754,0,3.412-0.002c3.121-0.533,5.729-1.82,7.793-3.908c2.777-2.809,4.166-6.559,4.166-11.25v-1.045v-1.061V83.053V67.91
	v-2.105C191.425,61.112,190.036,57.362,187.259,54.554z M181.546,79.818h-5.076c-1.908,0-3.385-0.522-4.432-1.57
	c-1.047-1.045-1.568-2.521-1.568-4.43v-7.94c0-1.907,0.521-3.384,1.568-4.431c0.521-0.521,1.148-0.911,1.883-1.173
	c0.039-0.012,0.078-0.02,0.117-0.031c0.232-0.078,0.486-0.13,0.74-0.183c0.352-0.056,0.719-0.089,1.107-0.089
	c1.779,0,3.172,0.506,4.18,1.514c0.924,0.925,1.404,2.161,1.48,3.682V79.818z"/>
</svg>
