<?xml version="1.0" standalone="no"?>
<!DOCTYPE svg PUBLIC "-//W3C//DTD SVG 20010904//EN"
 "http://www.w3.org/TR/2001/REC-SVG-20010904/DTD/svg10.dtd">
<svg version="1.0" xmlns="http://www.w3.org/2000/svg"
 width="700.000000pt" height="700.000000pt" viewBox="0 0 700.000000 700.000000"
 preserveAspectRatio="xMidYMid meet">
<metadata>
Created by potrace 1.14, written by Peter Selinger 2001-2017
</metadata>
<g transform="translate(0.000000,700.000000) scale(0.100000,-0.100000)"
fill="#000000" stroke="none">
<path d="M3268 6519 c-370 -29 -689 -165 -926 -396 -231 -226 -364 -499 -416
-854 -13 -87 -16 -211 -16 -661 0 -327 4 -588 11 -638 44 -359 179 -649 407
-874 215 -213 448 -331 772 -392 77 -14 172 -18 495 -23 l400 -6 0 -630 0
-630 -26 -76 c-60 -175 -174 -283 -356 -336 -47 -13 -118 -17 -385 -21 l-328
-4 0 -464 0 -464 453 0 c412 0 459 2 532 19 553 133 933 528 1051 1091 44 209
46 317 42 2235 -4 1665 -5 1818 -21 1915 -59 351 -185 610 -406 830 -192 191
-407 307 -688 369 -78 18 -124 21 -290 20 -109 -1 -246 -6 -305 -10z m336
-946 c90 -22 173 -69 237 -132 66 -67 103 -134 130 -239 18 -71 19 -116 19
-834 l0 -760 -327 5 c-273 3 -338 7 -388 21 -193 56 -318 186 -372 386 -16 58
-18 119 -18 590 0 574 0 578 61 706 52 109 175 215 297 254 91 29 252 30 361
3z"/>
</g>
</svg>
